<svg id="Layer_1" data-name="Layer 1" xmlns="http://www.w3.org/2000/svg" viewBox="0 0 20 23.09"><defs><style>.cls-1{fill:#fff;}</style></defs><title>simple-cookies-logo</title><path class="cls-1" d="M509.54,508.7a3.42,3.42,0,0,0-1.26-.64c-.33-.11-.67-.16-1-.24a2.18,2.18,0,0,1-1.09-.58,2.88,2.88,0,0,1-.45-.7,15.49,15.49,0,0,1-.91-2.55,3.12,3.12,0,0,1-.12-1.29,1.21,1.21,0,0,1,.74-1,8.82,8.82,0,0,1,1.12-.41c.73-.25,1.47-.48,2.2-.75a1.88,1.88,0,0,0,1.15-1.09,2.64,2.64,0,0,0,.19-.95h0a3.51,3.51,0,0,0-.13-.86,1.9,1.9,0,0,0-1.3-1.35,3.35,3.35,0,0,0-2,0,19.48,19.48,0,0,1-2.16.54,4.76,4.76,0,0,1-.66.08c-.06,0-.14,0-.17-.06s0-.12,0-.17l.21-.26a3.67,3.67,0,0,0,.66-1,3.63,3.63,0,0,0,.26-.95,2.35,2.35,0,0,0,.05-.59,1.43,1.43,0,0,1,0-.29c0-.05,0-.09,0-.14s-.05-.2-.06-.3a1.89,1.89,0,0,0-.11-.47,4.13,4.13,0,0,0-.32-.75,4.81,4.81,0,0,0-.45-.66,2.08,2.08,0,0,0-.21-.21l-.25-.25a2.93,2.93,0,0,0-.5-.34,4.6,4.6,0,0,0-2-.58,5.07,5.07,0,0,0-.55,0,8.27,8.27,0,0,0-.86.05l-.35,0a5,5,0,0,0-1,.22,3.66,3.66,0,0,0-2.54,2.33,4.39,4.39,0,0,0-.21,1.83,4.06,4.06,0,0,0,.42,1.43c.14.29.33.57.48.87a.51.51,0,0,1,.08.36s0,.07-.06.06c-.29-.06-.58-.11-.86-.18l-.48-.12a12.82,12.82,0,0,1-1.5-.42,2.94,2.94,0,0,0-1.35-.19,2.05,2.05,0,0,0-1.4.65,2.8,2.8,0,0,0-.68,1.94,1.48,1.48,0,0,0,.24.76,3.08,3.08,0,0,0,.79.78,4.12,4.12,0,0,0,.9.49l.64.26.51.2,1.57.58a1.38,1.38,0,0,1,1,1.28,3.18,3.18,0,0,1-.11,1,12.53,12.53,0,0,1-.42,1.22,5.8,5.8,0,0,1-1,1.77,3,3,0,0,1-1.4.94c-.37.12-.75.26-1.11.41a3.94,3.94,0,0,0-1.12.66,1.33,1.33,0,0,0-.49,1.12,2.23,2.23,0,0,0,.41,1,4.08,4.08,0,0,0,1.6,1.33,4,4,0,0,0,1.43.41,3.2,3.2,0,0,0,1.53-.27,10,10,0,0,0,1.8-1c.56-.38,1.09-.79,1.66-1.15a2.33,2.33,0,0,1,1.22-.37,3.88,3.88,0,0,1,2.25.68c.37.24.71.5,1.07.75a9.08,9.08,0,0,0,2.06,1.11,4.19,4.19,0,0,0,1.25.28,3.64,3.64,0,0,0,2.48-.75,2.84,2.84,0,0,0,1.22-1.92A1.58,1.58,0,0,0,509.54,508.7ZM501,492.09a.9.9,0,0,1,.24-.31.59.59,0,0,1,.42-.13.62.62,0,0,1,.4.18.82.82,0,0,1,.23.43.79.79,0,0,1-.08.5.66.66,0,0,1-.39.34.49.49,0,0,1-.2,0h0a.69.69,0,0,1-.67-.62A.74.74,0,0,1,501,492.09Zm-3.08.36a.8.8,0,0,1,.29-.67.64.64,0,0,1,.85.07A.77.77,0,0,1,499,493a.62.62,0,0,1-1-.22.63.63,0,0,1-.1-.33Zm-.27,1.62a.35.35,0,0,1,.46.18,3,3,0,0,0,.29.44,2.33,2.33,0,0,0,.77.66,2.12,2.12,0,0,0,.7.22,2.64,2.64,0,0,0,.63,0,2.15,2.15,0,0,0,.94-.44,1.76,1.76,0,0,0,.38-.39,2,2,0,0,0,.29-.49.34.34,0,0,1,.37-.17.37.37,0,0,1,.31.34s0,.05,0,.07a2.49,2.49,0,0,1-.27.51,3.65,3.65,0,0,1-.59.65,3.46,3.46,0,0,1-.46.32,2,2,0,0,1-.33.16,2.75,2.75,0,0,1-1,.19h0a3,3,0,0,1-1-.19,3.09,3.09,0,0,1-1.35-1.1,2,2,0,0,1-.28-.46A.35.35,0,0,1,497.65,494.07Zm5.89,12.79a3.06,3.06,0,0,1-1.33,1.11,5.16,5.16,0,0,1-2.09.4,4.77,4.77,0,0,1-2.39-.55,3.19,3.19,0,0,1-1.08-1.05,2.35,2.35,0,0,1-.41-1.27.84.84,0,0,1,.25-.62.83.83,0,0,1,.63-.26.76.76,0,0,1,.53.2,1.58,1.58,0,0,1,.37.6,4,4,0,0,0,.4.78,1.62,1.62,0,0,0,.61.51,2.2,2.2,0,0,0,1,.2,2.33,2.33,0,0,0,1.43-.4,1.24,1.24,0,0,0,.55-1,1.09,1.09,0,0,0-.3-.79,1.91,1.91,0,0,0-.76-.46,12.43,12.43,0,0,0-1.26-.34,8.84,8.84,0,0,1-1.76-.58,2.7,2.7,0,0,1-1.12-.89,2.34,2.34,0,0,1-.42-1.42,2.45,2.45,0,0,1,.44-1.43,2.73,2.73,0,0,1,1.27-1,5.12,5.12,0,0,1,2-.34,4.75,4.75,0,0,1,1.55.22,3.15,3.15,0,0,1,1.09.6,2.5,2.5,0,0,1,.64.77,1.85,1.85,0,0,1,.2.79,1,1,0,0,1-.25.64.81.81,0,0,1-.63.28.71.71,0,0,1-.51-.17,2.31,2.31,0,0,1-.39-.55,2.46,2.46,0,0,0-.64-.87,1.91,1.91,0,0,0-1.19-.31,2.09,2.09,0,0,0-1.24.34,1,1,0,0,0-.47.81.79.79,0,0,0,.16.5,1.24,1.24,0,0,0,.44.37,3.46,3.46,0,0,0,.57.24l.94.25a14.38,14.38,0,0,1,1.5.43,4.66,4.66,0,0,1,1.14.56,2.49,2.49,0,0,1,.73.85,2.61,2.61,0,0,1,.26,1.24A2.82,2.82,0,0,1,503.54,506.86Z" transform="translate(-490.12 -489.76)"/></svg>